# xmcd
#
# Track frame offsets:
#       150
#       17825
#       35314
#       49448
#       64107
#       80291
#       97081
#       115470
#       135690
#       151408
#       175387
#
# Disc length: 2521 seconds
#
# Revision: 0
# Processed by: cddbd v1.5.2PL0 Copyright (c) Steve Scherf et al.
# Submitted via: CD-DA_X-Tractor v0.24
#
DISCID=9509d70b
DTITLE=Tiago Iorc - Let yourself in
DYEAR=2008
DGENRE=
TTITLE0=No One There
TTITLE1=Blame
TTITLE2=Fine
TTITLE3=Nothing but a song
TTITLE4=Scared
TTITLE5=Ticket to ride
TTITLE6=There's more to life
TTITLE7=It's not time
TTITLE8=My girl
TTITLE9=When all hope is gone
TTITLE10=Nothing but a song (acoustic)
EXTD=
EXTT0=
EXTT1=
EXTT2=
EXTT3=
EXTT4=
EXTT5=
EXTT6=
EXTT7=
EXTT8=
EXTT9=
EXTT10=
PLAYORDER=
